<svg xmlns="http://www.w3.org/2000/svg" xmlns:xlink="http://www.w3.org/1999/xlink" width="653" height="144"><defs><filter id="a" width="106.5%" height="105.7%" x="-1.6%" y="-1.4%" filterUnits="objectBoundingBox"><feOffset dx="3" dy="3" in="SourceAlpha" result="shadowOffsetOuter1"/><feColorMatrix in="shadowOffsetOuter1" values="0 0 0 0 0 0 0 0 0 0 0 0 0 0 0 0 0 0 0.180534309 0"/></filter><filter id="c" width="118.5%" height="105.7%" x="-4.6%" y="-1.4%" filterUnits="objectBoundingBox"><feOffset dx="3" dy="3" in="SourceAlpha" result="shadowOffsetOuter1"/><feColorMatrix in="shadowOffsetOuter1" values="0 0 0 0 0 0 0 0 0 0 0 0 0 0 0 0 0 0 0.180534309 0"/></filter><filter id="e" width="107.2%" height="105.7%" x="-1.8%" y="-1.4%" filterUnits="objectBoundingBox"><feOffset dx="3" dy="3" in="SourceAlpha" result="shadowOffsetOuter1"/><feColorMatrix in="shadowOffsetOuter1" values="0 0 0 0 0 0 0 0 0 0 0 0 0 0 0 0 0 0 0.180534309 0"/></filter><filter id="g" width="105.6%" height="105.7%" x="-1.4%" y="-1.4%" filterUnits="objectBoundingBox"><feOffset dx="3" dy="3" in="SourceAlpha" result="shadowOffsetOuter1"/><feColorMatrix in="shadowOffsetOuter1" values="0 0 0 0 0 0 0 0 0 0 0 0 0 0 0 0 0 0 0.180534309 0"/></filter><filter id="i" width="106.9%" height="105.7%" x="-1.7%" y="-1.4%" filterUnits="objectBoundingBox"><feOffset dx="3" dy="3" in="SourceAlpha" result="shadowOffsetOuter1"/><feColorMatrix in="shadowOffsetOuter1" values="0 0 0 0 0 0 0 0 0 0 0 0 0 0 0 0 0 0 0.180534309 0"/></filter><filter id="k" width="106.6%" height="105.6%" x="-1.7%" y="-1.4%" filterUnits="objectBoundingBox"><feOffset dx="3" dy="3" in="SourceAlpha" result="shadowOffsetOuter1"/><feColorMatrix in="shadowOffsetOuter1" values="0 0 0 0 0 0 0 0 0 0 0 0 0 0 0 0 0 0 0.180534309 0"/></filter><path id="b" d="M0 105.6h32.4V82.05l6.9-9.75 16.05 33.3h37.5l-30.3-60L92.1.6H55.8L32.4 38.55V.6H0z"/><path id="d" d="M95.85 105.6h32.4V.6h-32.4z"/><path id="f" d="M160.8 105.6h32.4V28.95h25.65V.6h-83.7v28.35h25.65z"/><path id="h" d="M207.3 105.6h33.75l4.35-15h29.7l4.5 15h34.35L277.65 0H243.6zm45.15-39 7.8-27.3 7.95 27.3z"/><path id="j" d="M317.4 105.6h47.4c26.7 0 39.75-12.45 39.75-29.25v-.6c0-13.65-8.25-21-19.5-24.6 9.75-4.05 16.65-11.55 16.65-23.4V27c0-7.65-2.4-13.05-6.45-17.1-6.3-6.15-16.2-9.3-29.7-9.3H317.4zm52.65-71.25c0 5.1-3.45 7.65-10.5 7.65H348.9V26.4h10.65c7.05 0 10.5 2.55 10.5 7.8zm2.1 37.35c0 4.8-3.75 8.1-10.95 8.1h-12.3V63.45h12.3c7.2 0 10.95 3.3 10.95 8.1z"/><path id="l" d="M455.25 107.7c27.15 0 45.6-13.05 45.6-45V.6h-32.7v63.45c0 10.35-5.25 14.7-12.6 14.7s-12.6-4.5-12.6-15.15V.6H410.1v62.7c0 31.2 18.15 44.4 45.15 44.4"/></defs><g fill="none" fill-rule="nonzero"><path fill="#EEFF2A" d="M537.004 120.936V27.359q0-8.65 4.668-13.078 4.666-4.427 12.417-4.912 11.196-.67 21.318-1.888a338 338 0 0 0 19.443-2.894A402 402 0 0 0 612.947.913q9.223-2.183 14.272 2.121 5.05 4.305 5.05 13.912v91.89q0 8.29-2.854 12.512-2.854 4.22-9.754 6.163-11.704 3.263-22.269 5.223a261 261 0 0 1-20.762 3.016 404 404 0 0 1-20.757 1.598q-8.943.543-13.906-3.73-4.963-4.275-4.963-12.682m11.051-1.908q0 3.65 2.195 5.556 2.194 1.904 6.113 1.712a360 360 0 0 0 20.129-1.478 254 254 0 0 0 19.277-2.718 206 206 0 0 0 19.05-4.393q3.531-.912 4.995-3.005t1.464-6.272V18.97q0-4.045-2.309-6.004-2.308-1.96-6.4-1.009a369 369 0 0 1-17.762 3.649 324 324 0 0 1-18.91 2.824q-9.776 1.175-20.318 1.76-3.346.132-5.435 1.818t-2.089 5.367zm13.682-76.502q-1.632.073-2.684-.956-1.05-1.028-1.051-2.581 0-1.42.912-2.475.913-1.056 2.804-1.2 13.13-.864 24.037-2.608a355 355 0 0 0 21.164-4.03q2.103-.47 3.228.59 1.125 1.062 1.125 2.555 0 1.341-.71 2.396-.711 1.054-2.874 1.54a410 410 0 0 1-21.8 4.122q-11.015 1.777-24.15 2.647m0 19.808q-1.632.128-2.684-.925-1.05-1.05-1.051-2.558 0-1.479.912-2.538.913-1.058 2.804-1.19 13.13-.81 24.037-2.58a369 369 0 0 0 21.164-4.057q2.103-.41 3.228.617 1.125 1.029 1.125 2.521 0 1.341-.71 2.4-.711 1.058-2.874 1.601a388 388 0 0 1-21.8 4.09q-11.015 1.743-24.15 2.62m0 19.863q-1.632.073-2.684-.955-1.05-1.028-1.051-2.58 0-1.421.912-2.48.913-1.057 2.804-1.197 13.13-.87 24.037-2.61a353 353 0 0 0 21.164-4.027q2.103-.47 3.228.59 1.125 1.062 1.125 2.555 0 1.334-.71 2.393-.711 1.058-2.874 1.536a405 405 0 0 1-21.8 4.129q-11.015 1.777-24.15 2.646m0 19.744q-1.632.126-2.684-.926-1.05-1.052-1.051-2.551 0-1.487.912-2.548.913-1.061 2.804-1.188 7.469-.405 12.747-1.06 5.28-.654 9.674-1.318 2.182-.404 3.304.687 1.12 1.092 1.121 2.585 0 1.226-.813 2.345-.813 1.117-2.439 1.396a333 333 0 0 1-10.48 1.482q-5.489.69-13.095 1.096m26.368 41.143a338 338 0 0 0 16.465-2.96q8.505-1.74 17.492-4.218 6.389-1.818 10.608-5.245t6.312-8.791q2.09-5.365 2.09-13.035V17.132q0-1.484-.088-2.948a35 35 0 0 0-.314-2.989q5.834 1.569 8.828 6.227t2.993 12.297v93.254q0 10.033-5.003 15.072-5.002 5.04-14.896 5.04z"/><g transform="translate(.95 22.4)"><use xlink:href="#b" fill="#000" filter="url(#a)"/><use xlink:href="#b" fill="#FFF"/></g><g transform="translate(.95 22.4)"><use xlink:href="#d" fill="#000" filter="url(#c)"/><use xlink:href="#d" fill="#FFF"/></g><g transform="translate(.95 22.4)"><use xlink:href="#f" fill="#000" filter="url(#e)"/><use xlink:href="#f" fill="#FFF"/></g><g transform="translate(.95 22.4)"><use xlink:href="#h" fill="#000" filter="url(#g)"/><use xlink:href="#h" fill="#FFF"/></g><g transform="translate(.95 22.4)"><use xlink:href="#j" fill="#000" filter="url(#i)"/><use xlink:href="#j" fill="#FFF"/></g><g transform="translate(.95 22.4)"><use xlink:href="#l" fill="#000" filter="url(#k)"/><use xlink:href="#l" fill="#FFF"/></g></g></svg>