<svg xmlns="http://www.w3.org/2000/svg" width="100" height="100"><g fill="none" fill-rule="evenodd"><rect width="100" height="100" fill="#000" rx="16"/><path fill="#FFF" fill-rule="nonzero" d="M50.836 13.164q.915 0 1.895.396.98.397 1.923 1.377l25.06 26.867q1.343 1.424 1.932 2.468.59 1.045.59 2.353 0 1.884-1.318 3.12-1.32 1.236-3.167 1.235H64.592v27.673q0 3.825-2.087 5.96-2.086 2.134-5.844 2.134H44.945q-3.79 0-5.859-2.134t-2.069-5.96V50.98h-13.29q-1.852 0-3.07-1.219-1.22-1.22-1.22-3.067 0-1.323.56-2.466.562-1.144 1.763-2.424L47.047 14.94q.909-.98 1.912-1.378 1.004-.398 1.877-.398"/></g></svg>