<?xml version="1.0" encoding="UTF-8" standalone="no"?>
<svg width="299px" height="108px" viewBox="0 0 299 108" version="1.1" xmlns="http://www.w3.org/2000/svg" xmlns:xlink="http://www.w3.org/1999/xlink" xmlns:sketch="http://www.bohemiancoding.com/sketch/ns">
    <!-- Generator: Sketch 3.2.2 (9983) - http://www.bohemiancoding.com/sketch -->
    <title>kitabu</title>
    <desc>Created with Sketch.</desc>
    <defs></defs>
    <g id="Page-1" stroke="none" stroke-width="1" fill="none" fill-rule="evenodd" sketch:type="MSPage">
        <g id="Artboard-1" sketch:type="MSArtboardGroup" transform="translate(-306.000000, -171.000000)" fill="#FFFFFF">
            <g id="kitabu" sketch:type="MSLayerGroup" transform="translate(306.000000, 171.000000)">
                <g id="icon" transform="translate(220.895522, 0.000000)" sketch:type="MSShapeGroup">
                    <path d="M22.5432836,0.158684932 L22.5432836,0.225876712 L0.0402985075,22.6918219 L0.0402985075,107.69689 L77.9477612,107.69689 L77.9477612,0.158684932 L22.5432836,0.158684932 L22.5432836,0.158684932 Z M68.9925373,98.7379863 L8.99552239,98.7379863 L8.99552239,31.650726 L31.4985075,31.650726 L31.4985075,9.11758904 L68.9925373,9.11758904 L68.9925373,98.7379863 L68.9925373,98.7379863 Z" id="Fill-811"></path>
                    <path d="M16.9567164,41.0710137 L53.0014925,41.0710137 L53.0014925,48.2246986 L16.9567164,48.2246986 L16.9567164,41.0710137 Z" id="Fill-812"></path>
                    <path d="M16.9567164,57.1895753 L42.4641791,57.1895753 L42.4641791,64.3432603 L16.9567164,64.3432603 L16.9567164,57.1895753 Z" id="Fill-813"></path>
                    <path d="M16.9567164,73.2006301 L60.7552239,73.2006301 L60.7552239,80.3543151 L16.9567164,80.3543151 L16.9567164,73.2006301 Z" id="Fill-814"></path>
                </g>
                <path d="M28.5288568,92.6462919 C30.9812881,92.6462919 32.9263198,90.7041663 32.9263198,88.2553991 C32.9263198,87.4109967 32.67262,86.482154 31.9960872,85.5533113 L19.5647976,69.2563439 L30.6430217,60.8123193 C31.7423874,59.9679169 32.3343536,58.6168729 32.3343536,57.3502692 C32.3343536,54.9015021 30.3893219,52.9593765 27.9368906,52.9593765 C26.9220914,52.9593765 26.0764255,53.2126972 24.9770597,54.0570997 L9.67050582,66.0476145 L9.67050582,36.2402078 C9.67050582,33.7070005 7.64090751,31.8493151 5.10390963,31.8493151 C2.48234515,31.8493151 0.537313433,33.7070005 0.537313433,36.2402078 L0.537313433,88.2553991 C0.537313433,90.7886065 2.48234515,92.6462919 5.10390963,92.6462919 C7.64090751,92.6462919 9.67050582,90.7886065 9.67050582,88.2553991 L9.67050582,76.0960038 L12.3766369,73.9849976 L24.9770597,90.8730468 C25.7381591,91.8863297 26.9220914,92.6462919 28.5288568,92.6462919 L28.5288568,92.6462919 Z M47.9791739,57.5191497 C47.9791739,54.9859424 45.9495756,52.9593765 43.4125777,52.9593765 C40.8755798,52.9593765 38.8459815,54.9859424 38.8459815,57.5191497 L38.8459815,88.0865187 C38.8459815,90.619726 40.8755798,92.6462919 43.4125777,92.6462919 C45.9495756,92.6462919 47.9791739,90.619726 47.9791739,88.0865187 L47.9791739,57.5191497 Z M43.4125777,48.3996032 C46.9643747,48.3996032 48.9094065,46.3730373 48.9094065,43.0798677 C48.9094065,39.1956164 46.9643747,37.5068115 43.4125777,37.5068115 C39.9453473,37.5068115 38.0003155,39.1956164 38.0003155,43.0798677 C38.0003155,46.3730373 39.9453473,48.3996032 43.4125777,48.3996032 L43.4125777,48.3996032 Z M59.3956644,53.6348984 L57.4506327,53.6348984 C55.3364678,53.6348984 53.6451358,55.3237034 53.6451358,57.4347095 C53.6451358,59.5457156 55.3364678,61.2345205 57.4506327,61.2345205 L59.3956644,61.2345205 L59.3956644,81.1624185 C59.3956644,87.8331979 64.0468272,92.6462919 71.5732542,92.6462919 C73.7719857,92.6462919 75.5478843,90.8730468 75.5478843,88.6776004 C75.5478843,86.482154 73.7719857,84.7089088 71.5732542,84.7089088 C70.0510555,84.7089088 68.3597236,83.6111856 68.3597236,81.66906 L68.3597236,61.2345205 L72.1652204,61.2345205 C74.2793853,61.2345205 75.9707172,59.5457156 75.9707172,57.4347095 C75.9707172,55.3237034 74.2793853,53.6348984 72.1652204,53.6348984 L68.3597236,53.6348984 L68.3597236,46.5419178 C68.3597236,44.0931507 66.3301253,42.0665848 63.877694,42.0665848 C61.4252627,42.0665848 59.3956644,44.0931507 59.3956644,46.5419178 L59.3956644,53.6348984 Z M97.4506327,60.5589986 C102.355495,60.5589986 105.146193,63.092206 105.146193,66.892017 L105.146193,68.4119414 L94.0679688,68.4119414 C86.710675,68.4119414 80.3681802,72.4650732 80.3681802,80.3180161 C80.3681802,87.9176382 85.865009,93.0684932 94.1525354,93.0684932 C99.2265312,93.0684932 102.947461,91.8018895 105.23076,88.1709589 C105.23076,90.619726 107.260358,92.6462919 109.712789,92.6462919 C112.16522,92.6462919 114.194819,90.619726 114.194819,88.1709589 L114.194819,66.554256 C114.194819,57.60359 107.936891,52.452735 97.4506327,52.452735 C90.1779054,52.452735 85.9495756,55.2392631 83.5817109,57.8569107 C82.8206115,58.7013132 82.4823451,59.7145961 82.4823451,60.6434388 C82.4823451,62.8388852 84.2582437,64.6121304 86.4569752,64.6121304 C87.4717743,64.6121304 88.1483071,64.3588096 88.9939731,63.7677279 C91.108138,62.2478035 93.7297024,60.5589986 97.4506327,60.5589986 L97.4506327,60.5589986 Z M96.5204001,85.468871 C91.7846707,85.468871 89.5013726,83.5267454 89.5013726,80.3180161 C89.5013726,77.2781672 91.5309709,75.5049221 95.2519012,75.5049221 L105.146193,75.5049221 L105.146193,77.8692489 C105.146193,82.5979027 101.00243,85.468871 96.5204001,85.468871 L96.5204001,85.468871 Z M131.361838,64.5276901 C131.361838,64.5276901 134.659935,60.2212376 139.733931,60.2212376 C145.484459,60.2212376 148.782557,64.4432499 148.782557,72.8028342 C148.782557,81.0779783 145.569026,85.2999906 139.733931,85.2999906 C134.829068,85.2999906 131.361838,82.006821 131.361838,76.180444 L131.361838,64.5276901 Z M140.664163,52.452735 C136.604967,52.452735 133.05317,54.1415399 131.361838,55.8303448 L131.361838,36.4090883 C131.361838,33.875881 129.332239,31.8493151 126.795242,31.8493151 C124.258244,31.8493151 122.228645,33.875881 122.228645,36.4090883 L122.228645,76.180444 C122.228645,87.4109967 129.501373,93.0684932 139.733931,93.0684932 C151.150421,93.0684932 157.831182,86.5665942 157.831182,72.8028342 C157.831182,59.0390742 151.319554,52.452735 140.664163,52.452735 L140.664163,52.452735 Z M167.894607,52.9593765 C165.357609,52.9593765 163.328011,54.9859424 163.328011,57.5191497 L163.328011,77.193727 C163.328011,85.468871 166.456975,93.0684932 180.072197,93.0684932 C193.602853,93.0684932 196.731817,85.468871 196.731817,77.193727 L196.731817,57.5191497 C196.731817,54.9859424 194.702218,52.9593765 192.16522,52.9593765 C189.628223,52.9593765 187.598624,54.9859424 187.598624,57.5191497 L187.598624,77.193727 C187.598624,81.0779783 186.245559,84.7933491 180.072197,84.7933491 C173.814269,84.7933491 172.461203,81.0779783 172.461203,77.193727 L172.461203,57.5191497 C172.461203,54.9859424 170.431605,52.9593765 167.894607,52.9593765 L167.894607,52.9593765 Z" sketch:type="MSShapeGroup"></path>
            </g>
        </g>
    </g>
</svg>